<svg width="32" height="32" viewBox="0 0 32 32" fill="none" xmlns="http://www.w3.org/2000/svg">
<path d="M8.75 0.137496C8.475 0.243746 8.26875 0.412496 7.68125 0.993746C6.78125 1.8875 6.6625 2.1 6.65625 2.78125C6.65625 3.14375 6.6875 3.35 6.775 3.53125C6.85625 3.7 8.85625 5.75 12.9938 9.89375L19.0938 16L12.9875 22.1125C8.2375 26.8625 6.85 28.2812 6.75625 28.5C6.66875 28.6875 6.625 28.9187 6.625 29.1875C6.625 29.8312 6.80625 30.1437 7.675 31.0062C8.2875 31.6125 8.46875 31.75 8.76875 31.8625C9.225 32.0375 9.5875 32.0375 10.0438 31.8687C10.3938 31.7437 10.7188 31.425 17.7313 24.4125C25.8375 16.3125 25.375 16.825 25.375 16C25.375 15.175 25.8375 15.6875 17.7313 7.5875C10.7125 0.568745 10.3938 0.256246 10.0438 0.131246C9.59375 -0.0312535 9.19375 -0.0312535 8.75 0.137496Z" fill="white"/>
</svg>
